# xmcd
#
# Track frame offsets: 
#        150
#        13017
#        24697
#        35852
#        47630
#        58497
#        70270
#        80252
#        90672
#        101355
#        112465
#        123562
#        135227
#        146740
#        157072
#        167822
#        180307
#        190662
#        201595
#        211927
#        222255
#
# Disc length: 3103 seconds
#
# Revision: 2
# Processed by: cddbd v1.5.2PL0 Copyright (c) Steve Scherf et al.
# Submitted via: ExactAudioCopy v0.95b2
#
DISCID=3d0c1d15
DTITLE=Robert Johnson - The Complete Recordings - Disc 2
DYEAR=1990
DGENRE=Blues
TTITLE0=Preaching Blues (Up Jumped The Devil)
TTITLE1=If I Had Posession Over Judgement Day
TTITLE2=Stones In My Passway
TTITLE3=I'm A Steady Rollin' Man
TTITLE4=From Four Till Late
TTITLE5=Hellhound On My Trail
TTITLE6=Little Queen Of Spades
TTITLE7=Little Queen Of Spades (take 2)
TTITLE8=Malted Milk
TTITLE9=Drunken Hearted Man
TTITLE10=Drunken Hearted Man (take 2)
TTITLE11=Me And The Devil Blues
TTITLE12=Me And The Devil Blues (take 2)
TTITLE13=Stop Breakin' Down Blues
TTITLE14=Stop Breakin' Down Blues (take 2)
TTITLE15=Traveling Riverside Blues
TTITLE16=Honeymoon Blues
TTITLE17=Love In Vain
TTITLE18=Love In Vain (take 2)
TTITLE19=Milkcow's Calf Blues
TTITLE20=Milkcow's Calf Blues (take 2)
EXTD=Columbia C2K 46222-2
EXTT0=
EXTT1=
EXTT2=
EXTT3=
EXTT4=
EXTT5=
EXTT6=
EXTT7=
EXTT8=
EXTT9=
EXTT10=
EXTT11=
EXTT12=
EXTT13=
EXTT14=
EXTT15=
EXTT16=
EXTT17=
EXTT18=
EXTT19=
EXTT20=
PLAYORDER=
